<svg width="512" height="512" version="1.1" viewBox="0 0 135.47 135.47"
  xmlns="http://www.w3.org/2000/svg">
  <g transform="scale(.80834 1.2371)" fill="#06bee1" stroke-width=".32732" aria-label="&gt;&lt;">
    <path d="m9.1387 23.699q4.2449 0 56.599 34.313 3.5374 4.2449 3.5374 9.9048 0 2.8299-24.408 20.163-16.98 21.225-24.762 21.225-8.8436-2.8299-8.8436-9.9048v-1.0612q0-5.3061 26.884-31.129v-2.4762q-37.85-22.64-37.85-30.068v-1.415q0-4.9524 8.8436-9.551z"/>
    <path d="m156.3 0.35241q9.1973 0 10.966 12.027 0 4.2449-37.85 44.572v1.0612q31.483 14.15 31.483 21.225v1.0612q-1.7687 9.9048-10.259 9.9048-45.279-17.687-50.231-32.191 0-6.0136 31.483-32.191 15.565-20.871 24.408-25.469z"/>
  </g>
</svg>
