<svg width="1600" height="784" version="1.1" viewBox="0 0 423.33 207.43" xmlns="http://www.w3.org/2000/svg"><g fill="#06bee1"><g transform="scale(.80834 1.2371)" stroke-width=".32732" aria-label="&gt;&lt;"><path d="m9.1387 54.925q4.2449 0 56.599 34.313 3.5374 4.2449 3.5374 9.9048 0 2.8299-24.408 20.163-16.98 21.225-24.762 21.225-8.8436-2.8299-8.8436-9.9048v-1.0612q0-5.3061 26.884-31.129v-2.4762q-37.85-22.64-37.85-30.068v-1.415q0-4.9524 8.8436-9.551z"/><path d="m156.3 31.578q9.1973 0 10.966 12.027 0 4.2449-37.85 44.572v1.0612q31.483 14.15 31.483 21.225v1.0612q-1.7687 9.9048-10.259 9.9048-45.279-17.687-50.231-32.191 0-6.0136 31.483-32.191 15.565-20.871 24.408-25.469z"/></g><g stroke-width=".26458" aria-label="BUS"><path d="m184.79 16.977q2.6872 0.41341 6.6146 5.3744l6.2012-0.62012q25.011 0 35.967 28.939 2.6872 9.0951 2.6872 16.536v1.8604l0.41341 0.62012-0.41341 0.82682v2.4805q0 18.397-12.402 36.587 20.257 12.816 20.257 37v4.5475q0 25.838-18.397 48.783-8.0615 7.8548-16.95 7.8548l-9.5085-1.8604h-0.62011l-2.2738 1.2402h-2.4805q-5.5811 0-7.2347-13.229-5.1677-26.252-5.1677-59.118v-11.782l-3.1006-7.2347v-0.41342l3.1006-5.7878v-17.777q0-42.995-3.1006-69.453 1.447-5.3744 6.4079-5.3744zm7.2347 17.57q1.8604 28.732 1.8604 62.425v13.849h5.3744q16.123 0 23.978-29.352l0.62012-7.8548v-7.2347q0-23.358-18.397-31.213l-7.8548-1.4469h-2.4805zm3.7207 88.47h-1.8604v11.162q0 57.878 7.8548 57.878 2.4805 3.3073 5.7878 3.3073h2.6872q12.402 0 20.877-35.76l0.62012-11.782q0-23.564-15.503-27.285h-5.5811z"/><path d="m315.42 0.23368q8.475 0 8.475 45.475 1.2402 9.0951 1.2402 47.542l-0.62012 37.621q4.7542 52.503 12.402 62.012 5.9945 4.1341 5.9945 6.4079-1.2402 4.961-4.7542 6.6146h-2.4805q-10.335 0-16.95-27.285-1.2402 0.41341-7.028 16.95-7.4414 10.335-15.09 10.335-26.252 0-31.213-69.66l-10.542-122.37q2.0671-4.5475 5.7878-4.5475 7.2347 0 7.2347 19.43l12.402 134.15q6.6146 30.592 16.33 30.592 11.369-3.1006 15.09-64.492-3.514-54.364-3.514-98.185v-24.185q0-5.3744 7.2347-6.4079z"/><path d="m389.22 7.6751q20.671 0 29.352 24.805 1.2402 2.4805 1.2402 7.2347 0 5.1677-6.4079 5.7878-5.5811 0-7.028-13.643-7.028-11.782-15.71-11.782h-2.8939q-12.609 0-14.883 24.805v0.62012q0 29.766 37.827 89.917 11.782 22.944 11.782 38.447 0 21.084-21.497 32.66l-7.2347 1.2402q-19.017 0-36.38-26.045-3.3073-5.7878-3.3073-12.402 0-10.542 7.2347-11.782h1.8604q4.5475 3.1006 4.5475 5.7878l-1.2402 5.9945v0.41341q0 13.436 22.118 24.805l3.9274 0.82682h1.8604q10.749 0 15.71-18.397v-2.4805q0-22.118-28.732-65.112-20.671-40.721-20.671-63.872 0-26.045 20.05-36.38z"/></g></g></svg>
